<?xml version="1.0" encoding="utf-8"?>
<!-- Generator: Adobe Illustrator 16.0.4, SVG Export Plug-In . SVG Version: 6.00 Build 0)  -->
<!DOCTYPE svg PUBLIC "-//W3C//DTD SVG 1.1//EN" "http://www.w3.org/Graphics/SVG/1.1/DTD/svg11.dtd">
<svg version="1.1" xmlns="http://www.w3.org/2000/svg" xmlns:xlink="http://www.w3.org/1999/xlink" x="0px" y="0px" width="1024px"
	 height="1024px" viewBox="0 0 1024 1024" enable-background="new 0 0 1024 1024" xml:space="preserve">
<g id="Layer_2">
</g>
<g id="Layer_1">
	<g>
		<g>
			<path fill="#FFFFFF" d="M681.994,145.142c60.551-31.187,134.834-33.673,197.513-7.135
				c51.644,21.603,95.081,62.214,119.866,112.445c25.983,51.644,31.616,113.018,15.897,168.614
				c-15.075,54.255-50.464,102.557-97.656,133.261c-30.972,20.403-66.845,33.422-103.754,37.159
				c-2.558,0.376-5.293,0.482-7.492,1.932c-72.747,47.925-145.135,96.404-218.291,143.722c2.038,29.631-4.006,59.889-18.849,85.764
				c-18.599,33.262-49.642,58.995-85.228,72.317c-26.967,10.246-56.456,13.144-84.996,9.495
				c-39.323-5.186-76.788-24.445-103.182-54.147c-16.005-17.74-27.682-39.27-34.012-62.285c-0.411-2.629-3.559-2.61-5.472-3.415
				c-143.311-40.862-286.567-81.938-429.859-122.889c-57.081-16.184-114.019-32.886-171.172-48.748
				c-24.374,20.226-54.059,34.12-85.496,38.644c-37.285,5.651-76.43-0.93-109.495-19.169c-26.949-14.735-49.784-37.089-64.43-64.145
				c-13.054-23.927-19.403-51.501-18.044-78.72c1.431-28.897,11.463-57.24,28.433-80.649c22.8-31.92,57.671-54.559,95.689-63.769
				c39.807-9.835,83.047-5.097,119.67,13.43c39.377,19.617,70.368,55.703,82.42,98.157c201.5,57.903,403.143,115.271,604.66,173.084
				c2.593,0.697,5.722,1.573,7.761-0.841c25.054-19.902,55.973-32.152,87.768-35.407c12.231-1.663,24.588-0.769,36.874-0.519
				c37.875-63.554,76.018-126.947,113.946-190.466c1.628-2.307,0.949-5.15,0.716-7.708c-6.151-39.984-2.646-81.615,11.587-119.579
				C587.629,218.371,629.42,171.483,681.994,145.142z M777.058,202.599c-34.942,2.468-68.847,17.471-94.097,41.755
				c-23.731,22.318-39.967,52.449-45.439,84.585c-4.453,26.448-2.289,54.13,7.117,79.326c12.75,35.05,38.983,64.896,71.923,82.331
				c23.14,12.429,49.57,18.545,75.804,17.829c33.762-0.752,67.148-13.162,93.149-34.71c25.537-20.761,43.974-50.071,51.699-82.062
				c7.028-28.63,5.525-59.263-4.292-87.052c-12.125-34.799-37.304-64.789-69.474-82.742
				C837.394,207.033,806.922,200.435,777.058,202.599z M-505.455,404.401c-26.162,12.518-47.263,36.105-55.096,64.235
				c-6.867,23.711-4.077,50.017,7.528,71.798c14.61,27.878,42.489,47.906,73.193,54.166c20.332,3.79,42.095,3.236,61.498-4.435
				c-16.059-5.08-32.349-9.317-48.497-14.074c-13.787-4.202-28.416-6.866-40.576-15.057c-26.251-16.596-40.503-49.624-35.407-80.15
				c3.452-24.069,17.919-46.439,38.859-58.922c17.918-11.016,40.343-14.628,60.675-8.941c24.32,6.831,48.569,13.931,72.889,20.779
				c-16.291-20.368-40.218-34.227-65.861-38.733C-459.533,391.116-484.158,393.923-505.455,404.401z M389.24,650.751
				c12.375,4.256,25.107,7.332,37.643,11.086c11.713,3.613,24.016,5.902,34.835,11.929c20.994,11.194,35.854,32.636,39.949,55.972
				c5.078,26.807-4.256,55.883-23.945,74.767c-15.468,15.272-37.41,23.892-59.172,22.657c-10.479-0.196-20.458-3.791-30.454-6.545
				c-18.115-5.132-36.176-10.461-54.309-15.469c26.501,37.501,78.147,53.165,121.565,39.521c29.31-8.674,54.863-30.24,67.059-58.422
				c9.424-21.549,10.658-46.549,3.183-68.866c-7.421-22.746-23.39-42.381-43.722-54.881
				C454.637,645.403,419.874,641.166,389.24,650.751z"/>
		</g>
		<path fill="#FFFFFF" d="M775.181,232.856c30.847-3.756,63,4.899,87.874,23.497c21.388,15.719,37.411,38.52,45.101,63.912
			c9.227,30.418,6.277,64.395-8.423,92.596c-12.071,23.695-31.991,43.223-55.882,54.863c-30.239,15.021-66.737,16.685-98.282,4.722
			c-26.377-9.782-49.034-29.023-63.322-53.219c-11.105-18.633-16.917-40.218-17.292-61.873
			c-0.179-29.148,10.067-58.315,28.899-80.633C713.986,252.401,743.743,236.164,775.181,232.856z"/>
	</g>
</g>
</svg>
