<?xml version="1.0" encoding="utf-8"?>
<!-- Generator: Adobe Illustrator 16.0.4, SVG Export Plug-In . SVG Version: 6.00 Build 0)  -->
<!DOCTYPE svg PUBLIC "-//W3C//DTD SVG 1.1//EN" "http://www.w3.org/Graphics/SVG/1.1/DTD/svg11.dtd">
<svg version="1.1" id="Layer_1" xmlns="http://www.w3.org/2000/svg" xmlns:xlink="http://www.w3.org/1999/xlink" x="0px" y="0px"
	 width="47px" height="37px" viewBox="0 0 47 37" enable-background="new 0 0 47 37" xml:space="preserve">
<g>
	<path fill="#858585" d="M0-0.015h30.562c-0.03,3.779,0,5.514,0,11.25c-13.845,0-8.561-0.02-14.197,0
		c-0.026,4.107-0.018,6.002-0.026,8.982c-1.374,0-1.038,0.033-3.054,0.033c-3.317,2.119-7.87,4.981-11.147,7.152
		c0.42-2.398,0.974-4.763,1.619-7.14c-1.249-0.01-2.507-0.01-3.756-0.02L0-0.015L0-0.015z"/>
	<path fill="#BEBEBE" d="M18.956,13.794c9.36-0.07,18.724-0.01,28.085-0.03l-0.062,17.129c-2.287,0-4.502,0-6.791,0
		c0.44,2.028,0.841,4.12,1.358,6.12h-0.25c-3.026-2.155-6.389-4.332-9.615-6.168c-4.368-0.006-8.264,0-12.737,0
		C18.933,25.145,18.946,19.484,18.956,13.794z"/>
</g>
</svg>
