<?xml version="1.0" encoding="utf-8"?>
<!-- Generator: Adobe Illustrator 16.0.4, SVG Export Plug-In . SVG Version: 6.00 Build 0)  -->
<!DOCTYPE svg PUBLIC "-//W3C//DTD SVG 1.1//EN" "http://www.w3.org/Graphics/SVG/1.1/DTD/svg11.dtd">
<svg version="1.1" id="Layer_1" xmlns="http://www.w3.org/2000/svg" xmlns:xlink="http://www.w3.org/1999/xlink" x="0px" y="0px"
	 width="100px" height="49px" viewBox="0 0 100 49" enable-background="new 0 0 100 49" xml:space="preserve">
<g>
	<g>
		<path fill="#105AB2" d="M8.64,5.92c5.44-2.01,10.9-3.95,16.35-5.91c5.38,2.02,10.89,3.74,16.2,5.95c3.17,4.81,5.82,9.96,8.79,14.9
			c-0.99,5.69-1.98,11.38-3.04,17.06c-4.43,3.67-8.84,7.36-13.24,11.07H16.3c-4.43-3.68-8.81-7.41-13.26-11.07
			C1.96,32.25,1,26.55,0,20.86C2.86,15.87,5.79,10.92,8.64,5.92z M17.13,11c-2.73,4.58-5.45,9.18-8.01,13.86
			c2.64,4.55,5.23,9.13,7.97,13.62c5.27,0.02,10.53,0.02,15.8,0c2.74-4.5,5.34-9.08,7.97-13.63c-2.57-4.68-5.27-9.28-8.01-13.85
			C27.61,10.98,22.37,10.98,17.13,11z"/>
	</g>
	<g>
		<path fill="#105AB2" d="M58.77,5.97c5.31-2.22,10.83-3.94,16.22-5.96c5.45,1.96,10.91,3.9,16.35,5.91c2.85,5,5.78,9.95,8.64,14.94
			c-0.99,5.69-1.98,11.38-3.04,17.06c-4.44,3.67-8.84,7.36-13.24,11.07H66.3c-4.43-3.68-8.82-7.41-13.26-11.07
			C51.96,32.24,51,26.55,50,20.86C52.96,15.92,55.63,10.79,58.77,5.97z M67.14,10.99c-2.74,4.57-5.44,9.17-8.02,13.84
			c2.62,4.57,5.23,9.15,7.97,13.65c5.27,0.02,10.53,0.02,15.8,0c2.74-4.5,5.35-9.08,7.97-13.65c-2.58-4.66-5.28-9.27-8.02-13.84
			C77.61,10.98,72.37,10.99,67.14,10.99z"/>
	</g>
</g>
<g>
	<g>
		<path fill="#1E2933" d="M17.13,11c5.24-0.02,10.48-0.02,15.72,0c2.74,4.57,5.44,9.17,8.01,13.85c-2.63,4.55-5.23,9.13-7.97,13.63
			c-5.27,0.02-10.53,0.02-15.8,0c-2.74-4.49-5.33-9.07-7.97-13.62C11.68,20.18,14.4,15.58,17.13,11z M16.35,30.21
			c5.64,0.05,11.28,0.02,16.93,0.03c-2.75-4.99-5.64-9.9-8.44-14.86C21.98,20.31,19.18,25.27,16.35,30.21z"/>
	</g>
	<g>
		<path fill="#1E2933" d="M67.14,10.99c5.23,0,10.47-0.01,15.7,0c2.74,4.57,5.44,9.18,8.02,13.84c-2.62,4.57-5.23,9.15-7.97,13.65
			c-5.27,0.02-10.53,0.02-15.8,0c-2.74-4.5-5.35-9.08-7.97-13.65C61.7,20.16,64.4,15.56,67.14,10.99z M65.95,30.92
			c6.01,0.15,12.02,0.04,18.03,0.07c-2.9-5.42-5.95-10.77-9.05-16.08C71.88,20.21,68.73,25.46,65.95,30.92z"/>
	</g>
</g>
<g>
	<path fill="#FFFFFF" d="M16.35,30.21c2.83-4.94,5.63-9.9,8.49-14.83c2.8,4.96,5.69,9.87,8.44,14.86
		C27.63,30.23,21.99,30.26,16.35,30.21z"/>
</g>
<g>
	<path fill="#FF7F00" d="M65.95,30.92c2.78-5.46,5.93-10.71,8.98-16.01c3.1,5.31,6.15,10.66,9.05,16.08
		C77.97,30.96,71.96,31.07,65.95,30.92z"/>
</g>
</svg>
