<?xml version="1.0" encoding="utf-8"?>
<!-- Generator: Adobe Illustrator 16.0.4, SVG Export Plug-In . SVG Version: 6.00 Build 0)  -->
<!DOCTYPE svg PUBLIC "-//W3C//DTD SVG 1.1//EN" "http://www.w3.org/Graphics/SVG/1.1/DTD/svg11.dtd">
<svg version="1.1" id="Layer_1" xmlns="http://www.w3.org/2000/svg" xmlns:xlink="http://www.w3.org/1999/xlink" x="0px" y="0px"
	 width="520px" height="156px" viewBox="0 0 520 156" enable-background="new 0 0 520 156" xml:space="preserve">
<g>
	<polygon fill="#FFFFFF" points="95.293,83.98 125.089,83.98 125.089,72.056 95.293,72.056 95.293,60.166 128.033,60.166 
		128.033,48.401 80.397,48.401 80.397,108.613 128.812,108.613 128.812,95.712 95.293,95.712 	"/>
	<polygon fill="#FFFFFF" points="238.511,72.07 216.167,72.07 216.167,48.401 201.268,48.401 201.268,108.613 216.167,108.613 
		216.167,84.959 238.511,84.959 238.511,108.613 253.407,108.613 253.407,48.401 238.511,48.401 	"/>
	<polygon fill="#FFFFFF" points="21.637,61.075 39.844,61.075 39.844,108.436 54.742,108.436 54.742,61.075 72.949,61.075 
		72.949,48.401 21.637,48.401 	"/>
	<polygon fill="#FFFFFF" points="448.762,61.075 466.969,61.075 466.969,108.436 481.867,108.436 481.867,61.075 500.074,61.075 
		500.074,48.401 448.762,48.401 	"/>
	<path fill="#FFFFFF" d="M192.255,87.635h-14.739c-0.977,5.662-5.409,9.124-11.942,9.383c-0.262,0.012-0.527,0.018-0.796,0.018
		c-4.316,0-7.523-1.529-9.821-3.938c-3.471-3.635-4.871-9.27-4.871-14.686c0-5.416,1.4-11.053,4.871-14.687
		c2.298-2.406,5.505-3.937,9.821-3.937c0.269,0,0.534,0.008,0.796,0.018c6.406,0.27,10.616,3.826,11.768,9.911h14.984
		c-0.02-0.178-0.048-0.352-0.071-0.527c-0.824-6.215-3.484-11.396-7.579-15.169c-4.785-4.412-11.523-6.907-19.554-6.907
		c-1.085,0-2.151,0.051-3.195,0.152c-15.675,1.512-26.739,14.144-26.739,31.145c0,0.001,0,0.001,0,0.002s0,0.002,0,0.004
		c0,17,11.064,29.631,26.739,31.143c1.044,0.102,2.109,0.152,3.195,0.152c8.031,0,14.769-2.496,19.554-6.907
		c4.421-3.731,7.457-8.871,7.789-15.169H192.255z"/>
	<path fill="#FFFFFF" d="M296.985,72.651c-1.848-0.514-3.688-0.958-5.468-1.383l-0.066-0.019c-7-1.683-12.527-3.012-12.527-7.114
		c0-4.214,4.236-5.715,8.197-5.715c2.191,0,6.22,0.372,8.587,2.852c1.142,1.19,1.729,2.704,1.751,4.5h14.883
		c-0.387-13.771-13.124-18.658-23.938-18.658c-12.135,0-24.375,5.581-24.375,18.048c0,10.678,8.412,14.545,17.498,17.128
		c1.566,0.438,3.132,0.834,4.645,1.216c7.115,1.794,13.246,3.347,13.246,8.157c0,4.971-5.293,6.741-10.247,6.741
		c-7.709,0-11.532-3.016-12.013-9.488h-14.916c0.311,13.022,10.018,20.796,25.989,20.796c7.841,0,26.085-1.943,26.085-19.932
		C314.316,78.988,305.556,75.064,296.985,72.651z"/>
	<path fill="#FFFFFF" d="M352.31,48.401H323.83v60.212h14.895V88.088h13.585c14.301,0,21.552-6.903,21.552-20.53
		C373.861,50.268,358.789,48.401,352.31,48.401z M349.912,76.781h-11.188V60.136h11.188c5.753,0,9.053,3.108,9.053,8.534
		C358.965,73.976,355.835,76.781,349.912,76.781z"/>
	<g>
		<polygon fill="#FFFFFF" points="436.768,52.709 414.229,44.505 391.693,52.709 379.701,73.478 383.866,97.094 402.236,112.51 
			426.22,112.51 444.594,97.094 448.757,73.478 		"/>
		<polygon fill="#0A0B0B" points="425.877,99.816 402.58,99.816 390.932,79.641 402.58,59.463 425.877,59.463 437.527,79.641 		"/>
	</g>
	<path fill="#FF7F00" d="M425.878,86.365H402.58l11.648-20.176L425.878,86.365z"/>
</g>
</svg>
