<?xml version="1.0" encoding="utf-8"?>
<!-- Generator: Adobe Illustrator 16.0.4, SVG Export Plug-In . SVG Version: 6.00 Build 0)  -->
<!DOCTYPE svg PUBLIC "-//W3C//DTD SVG 1.1//EN" "http://www.w3.org/Graphics/SVG/1.1/DTD/svg11.dtd">
<svg version="1.1" id="Layer_1" xmlns="http://www.w3.org/2000/svg" xmlns:xlink="http://www.w3.org/1999/xlink" x="0px" y="0px"
	 width="27px" height="27px" viewBox="0 0 27 27" enable-background="new 0 0 27 27" xml:space="preserve">
<g id="Layer_2_1_">
	<rect fill="#FDB92D" width="27" height="27"/>
</g>
<g id="Layer_2">
	<g display="none">
		<path display="inline" fill="#F4B93B" d="M26.625,22.625c0,2.2-1.8,4-4,4H4.375c-2.2,0-4-1.8-4-4V4.375c0-2.2,1.8-4,4-4h18.25
			c2.2,0,4,1.8,4,4V22.625z"/>
		<path display="inline" fill="none" stroke="#231F20" stroke-width="0.5" stroke-miterlimit="10" d="M26.625,22.625
			c0,2.2-1.8,4-4,4H4.375c-2.2,0-4-1.8-4-4V4.375c0-2.2,1.8-4,4-4h18.25c2.2,0,4,1.8,4,4V22.625z"/>
	</g>
	<path fill="#FFFFFF" d="M3.335,14.143c2.54,0,4.926,0.991,6.721,2.797c1.797,1.806,2.786,4.207,2.786,6.769h3.912
		c0-7.435-6.02-13.476-13.419-13.476V14.143z M3.341,7.205c9.05,0,16.413,7.402,16.413,16.504h3.914
		c0-11.259-9.12-20.417-20.327-20.417V7.205z M8.752,20.975c0,1.498-1.214,2.711-2.71,2.711c-1.497,0-2.71-1.213-2.71-2.711
		c0-1.496,1.213-2.711,2.71-2.711S8.752,19.479,8.752,20.975z"/>
</g>
<g id="Layer_1_1_">
</g>
</svg>
