<?xml version="1.0" encoding="utf-8"?>
<!-- Generator: Adobe Illustrator 16.0.4, SVG Export Plug-In . SVG Version: 6.00 Build 0)  -->
<!DOCTYPE svg PUBLIC "-//W3C//DTD SVG 1.1//EN" "http://www.w3.org/Graphics/SVG/1.1/DTD/svg11.dtd">
<svg version="1.1" id="Layer_1" xmlns="http://www.w3.org/2000/svg" xmlns:xlink="http://www.w3.org/1999/xlink" x="0px" y="0px"
	 width="156px" height="22px" viewBox="0 0 156 22" enable-background="new 0 0 156 22" xml:space="preserve">
<path fill="#4168B0" d="M19.978,8.17h-2.595V6.473c0-0.637,0.43-0.787,0.724-0.787c0.3,0,1.829,0,1.829,0V2.881l-2.518-0.01
	c-2.794,0-3.428,2.094-3.428,3.432V8.17h-1.618v2.891h1.618c0,3.714,0,8.186,0,8.186h3.394c0,0,0-4.521,0-8.186h2.301L19.978,8.17z"
	/>
<path fill="#2EBEE5" d="M56.174,5.508c-0.59,0.259-1.223,0.436-1.887,0.515c0.677-0.407,1.2-1.048,1.445-1.816
	c-0.637,0.377-1.34,0.649-2.088,0.797c-0.604-0.641-1.459-1.04-2.404-1.04c-1.812,0-3.286,1.476-3.286,3.294
	c0,0.253,0.028,0.505,0.085,0.748c-2.732-0.142-5.157-1.449-6.779-3.44c-0.284,0.489-0.446,1.05-0.446,1.654
	c0,1.141,0.58,2.149,1.462,2.739c-0.537-0.021-1.044-0.165-1.488-0.41c0,0.012,0,0.024,0,0.039c0,1.595,1.133,2.921,2.636,3.227
	c-0.274,0.073-0.564,0.113-0.866,0.113c-0.213,0-0.417-0.021-0.616-0.057c0.417,1.306,1.632,2.255,3.071,2.287
	c-1.125,0.876-2.544,1.402-4.085,1.402c-0.264,0-0.527-0.016-0.785-0.04c1.454,0.924,3.187,1.468,5.04,1.468
	c6.051,0,9.362-5.005,9.362-9.354c0-0.144-0.006-0.286-0.008-0.424C55.176,6.745,55.734,6.165,56.174,5.508z"/>
<g>
	<path fill="#E72C2E" d="M88.585,5.113h-1.809V3.309c0-0.136-0.105-0.25-0.243-0.25h-0.52c-0.133,0-0.247,0.114-0.247,0.25v1.804
		h-1.804c-0.138,0-0.252,0.111-0.252,0.25v0.515c0,0.136,0.114,0.248,0.252,0.248h1.804v1.804c0,0.138,0.114,0.251,0.247,0.251h0.52
		c0.138,0,0.243-0.113,0.243-0.251V6.125h1.809c0.134,0,0.247-0.112,0.247-0.25V5.362C88.832,5.224,88.719,5.113,88.585,5.113z"/>
	<path fill="#E72C2E" d="M81.729,12.119c-0.58-0.408-1.099-1.002-1.11-1.184c0-0.334,0.032-0.493,0.778-1.077
		c0.965-0.756,1.496-1.75,1.496-2.802c0-0.953-0.284-1.798-0.783-2.392h0.39c0.077,0,0.154-0.024,0.215-0.071l1.074-0.778
		c0.134-0.095,0.19-0.266,0.134-0.422c-0.044-0.154-0.19-0.261-0.356-0.261h-4.794c-0.525,0-1.058,0.093-1.579,0.273
		c-1.751,0.602-2.974,2.092-2.974,3.623c0,2.165,1.681,3.807,3.923,3.86c-0.045,0.172-0.065,0.341-0.065,0.507
		c0,0.333,0.083,0.651,0.257,0.955c-0.018,0-0.039,0-0.062,0c-2.137,0-4.065,1.055-4.801,2.615c-0.19,0.401-0.288,0.815-0.288,1.221
		c0,0.389,0.101,0.771,0.3,1.127c0.462,0.823,1.45,1.464,2.788,1.804c0.689,0.171,1.431,0.26,2.201,0.26
		c0.691,0,1.353-0.089,1.961-0.264c1.901-0.551,3.126-1.954,3.126-3.571C83.558,13.996,83.062,13.063,81.729,12.119z M75.667,15.671
		c0-1.128,1.433-2.117,3.065-2.117h0.042c0.359,0.004,0.704,0.053,1.032,0.158c0.109,0.069,0.219,0.15,0.32,0.219
		c0.763,0.52,1.261,0.855,1.399,1.399c0.032,0.138,0.053,0.275,0.053,0.409c0,1.403-1.055,2.116-3.12,2.116
		C76.894,17.855,75.667,16.895,75.667,15.671z M77.153,5.013c0.253-0.292,0.59-0.446,0.965-0.446h0.041
		c1.064,0.03,2.078,1.214,2.26,2.635c0.105,0.795-0.068,1.543-0.47,1.999c-0.256,0.292-0.588,0.446-0.978,0.446l0,0h-0.016
		c-1.038-0.032-2.076-1.259-2.26-2.678C76.592,6.175,76.758,5.463,77.153,5.013z"/>
</g>
<path fill="#EE7524" d="M104.571,12.07c1.894,0,3.669,0.737,4.991,2.075c1.35,1.351,2.075,3.143,2.075,5.032h2.915
	c0-5.515-4.479-10.019-9.981-10.019V12.07z M104.571,6.911c6.738,0,12.212,5.502,12.212,12.283h2.911
	c0-8.372-6.779-15.196-15.123-15.196V6.911z M108.598,17.158c0,1.111-0.9,2.02-2.02,2.02c-1.111,0-2.02-0.908-2.02-2.02
	c0-1.106,0.908-2.015,2.02-2.015C107.697,15.144,108.598,16.052,108.598,17.158z"/>
<g>
	<path fill="#4A75B6" d="M131.104,3.337h13.627c-0.013,1.688,0,2.465,0,5.021c-6.171,0-3.815-0.012-6.329,0
		c-0.009,1.829-0.009,2.672-0.009,4.002c-0.624,0-0.462,0.018-1.362,0.018c-1.483,0.941-3.507,2.214-4.975,3.188
		c0.187-1.066,0.435-2.125,0.722-3.184c-0.555-0.004-1.114-0.004-1.674-0.01V3.337L131.104,3.337z"/>
	<path fill="#99B1D5" d="M139.557,9.5c4.176-0.037,8.34-0.004,12.52-0.018l-0.023,7.641c-1.022,0-2.016,0-3.037,0
		c0.207,0.896,0.373,1.832,0.604,2.732h-0.105c-1.351-0.965-2.854-1.934-4.29-2.753c-1.942-0.004-3.678,0-5.685,0
		C139.54,14.556,139.54,12.031,139.557,9.5z"/>
</g>
</svg>
