<?xml version="1.0" encoding="utf-8"?>
<!-- Generator: Adobe Illustrator 16.0.4, SVG Export Plug-In . SVG Version: 6.00 Build 0)  -->
<!DOCTYPE svg PUBLIC "-//W3C//DTD SVG 1.1//EN" "http://www.w3.org/Graphics/SVG/1.1/DTD/svg11.dtd">
<svg version="1.1" id="Layer_1" xmlns="http://www.w3.org/2000/svg" xmlns:xlink="http://www.w3.org/1999/xlink" x="0px" y="0px"
	 width="22px" height="156px" viewBox="0 0 22 156" enable-background="new 0 0 22 156" xml:space="preserve">
<path fill="#2CBEE6" d="M18.891,36.69c-0.575,0.256-1.196,0.429-1.848,0.506c0.666-0.397,1.174-1.028,1.415-1.78
	c-0.622,0.369-1.309,0.637-2.042,0.781c-0.588-0.625-1.424-1.016-2.348-1.016c-1.775,0-3.216,1.44-3.216,3.217
	c0,0.251,0.029,0.496,0.084,0.732c-2.672-0.134-5.043-1.414-6.63-3.361c-0.276,0.475-0.435,1.028-0.435,1.618
	c0,1.115,0.567,2.1,1.43,2.677c-0.526-0.018-1.022-0.162-1.456-0.402c0,0.013,0,0.027,0,0.041c0,1.558,1.108,2.857,2.58,3.154
	c-0.27,0.073-0.554,0.112-0.848,0.112c-0.208,0-0.409-0.02-0.605-0.058c0.41,1.278,1.598,2.208,3.004,2.233
	c-1.101,0.863-2.487,1.378-3.994,1.378c-0.26,0-0.516-0.015-0.768-0.045c1.423,0.913,3.115,1.445,4.93,1.445
	c5.917,0,9.151-4.9,9.151-9.15c0-0.139-0.004-0.278-0.01-0.417C17.915,37.902,18.46,37.335,18.891,36.69z"/>
<path fill="#4067B1" d="M14.818,5.249h-2.566V3.566c0-0.632,0.42-0.78,0.715-0.78c0.293,0,1.811,0,1.811,0V0.009L12.283,0
	C9.516,0,8.887,2.072,8.887,3.397v1.852H7.286v2.862h1.601c0,3.673,0,8.099,0,8.099h3.365c0,0,0-4.469,0-8.099h2.273L14.818,5.249z"
	/>
<g>
	<path fill="#E92B2C" d="M18.705,70.02h-1.732v-1.731c0-0.131-0.105-0.239-0.238-0.239h-0.492c-0.134,0-0.241,0.108-0.241,0.239
		v1.731h-1.733c-0.13,0-0.238,0.108-0.238,0.239v0.495c0,0.131,0.108,0.238,0.238,0.238h1.733v1.732c0,0.132,0.107,0.24,0.241,0.24
		h0.492c0.133,0,0.238-0.107,0.238-0.24v-1.732h1.732c0.131,0,0.238-0.107,0.238-0.239v-0.493
		C18.943,70.127,18.836,70.02,18.705,70.02z"/>
	<path fill="#E92B2C" d="M12.123,76.744c-0.552-0.39-1.052-0.961-1.061-1.137c0-0.321,0.028-0.473,0.745-1.031
		c0.928-0.727,1.437-1.68,1.437-2.689c0-0.915-0.277-1.727-0.752-2.297h0.368c0.076,0,0.151-0.024,0.212-0.068l1.028-0.747
		c0.129-0.091,0.185-0.255,0.134-0.404c-0.049-0.149-0.187-0.25-0.342-0.25H9.287c-0.503,0-1.016,0.089-1.517,0.261
		c-1.678,0.578-2.851,2.009-2.851,3.477c0,2.078,1.611,3.654,3.763,3.704C8.64,75.727,8.62,75.89,8.62,76.049
		c0,0.321,0.081,0.625,0.248,0.917c-0.019,0-0.037,0-0.06,0c-2.052,0-3.904,1.007-4.607,2.506c-0.184,0.389-0.276,0.783-0.276,1.173
		c0,0.378,0.096,0.742,0.287,1.085c0.441,0.789,1.392,1.404,2.674,1.728c0.663,0.166,1.373,0.252,2.113,0.252
		c0.663,0,1.297-0.086,1.883-0.254c1.825-0.529,3.003-1.874,3.003-3.425C13.884,78.544,13.406,77.652,12.123,76.744z M6.308,80.151
		c0-1.083,1.375-2.033,2.942-2.033h0.042c0.341,0.005,0.674,0.055,0.987,0.152c0.107,0.073,0.21,0.145,0.311,0.211
		c0.726,0.496,1.206,0.821,1.34,1.345c0.03,0.132,0.048,0.264,0.048,0.393c0,1.348-1.008,2.031-2.99,2.031
		C7.485,82.25,6.308,81.327,6.308,80.151z M7.735,69.924c0.244-0.28,0.565-0.427,0.925-0.427h0.041
		c1.018,0.03,1.991,1.165,2.169,2.528c0.1,0.763-0.069,1.481-0.454,1.918c-0.245,0.28-0.562,0.428-0.936,0.428l0,0H9.463
		c-0.996-0.031-1.991-1.207-2.169-2.569C7.195,71.04,7.356,70.356,7.735,69.924z"/>
</g>
<path fill="#F07422" d="M2.785,109.771c1.979,0,3.839,0.774,5.237,2.181c1.401,1.405,2.172,3.278,2.172,5.272h3.05
	c0-5.792-4.693-10.503-10.459-10.503V109.771z M2.79,104.365c7.053,0,12.79,5.771,12.79,12.863h3.052
	c0-8.775-7.107-15.913-15.842-15.913V104.365z M7.006,115.099c0,1.166-0.946,2.111-2.112,2.111c-1.166,0-2.112-0.945-2.112-2.111
	c0-1.167,0.946-2.114,2.112-2.114C6.06,112.984,7.006,113.932,7.006,115.099z"/>
<g>
	<path fill="#4B75B7" d="M0.203,139h14.029c-0.015,1.736,0,2.532,0,5.165c-6.355,0-3.93-0.009-6.518,0
		c-0.013,1.886-0.008,2.755-0.013,4.123c-0.631,0-0.476,0.016-1.4,0.016c-1.524,0.973-3.613,2.286-5.117,3.282
		c0.193-1.1,0.446-2.186,0.743-3.276c-0.573-0.005-1.151-0.005-1.724-0.009V139L0.203,139z"/>
	<path fill="#9AB2D6" d="M8.904,145.34c4.297-0.032,8.595-0.005,12.892-0.014l-0.028,7.862c-1.051,0-2.066,0-3.118,0
		c0.203,0.931,0.387,1.891,0.624,2.81h-0.114c-1.39-0.99-2.934-1.988-4.414-2.831c-2.006-0.004-3.793,0-5.846,0
		C8.894,150.55,8.899,147.951,8.904,145.34z"/>
</g>
</svg>
