<?xml version="1.0" encoding="utf-8"?>
<!-- Generator: Adobe Illustrator 16.0.4, SVG Export Plug-In . SVG Version: 6.00 Build 0)  -->
<!DOCTYPE svg PUBLIC "-//W3C//DTD SVG 1.1//EN" "http://www.w3.org/Graphics/SVG/1.1/DTD/svg11.dtd">
<svg version="1.1" id="Layer_1" xmlns="http://www.w3.org/2000/svg" xmlns:xlink="http://www.w3.org/1999/xlink" x="0px" y="0px"
	 width="59px" height="17px" viewBox="0 0 59 17" enable-background="new 0 0 59 17" xml:space="preserve">
<path fill="#FFFFFF" d="M35.308,3.721c-0.567,0.251-1.179,0.422-1.817,0.498c0.651-0.391,1.154-1.011,1.392-1.75
	c-0.61,0.363-1.289,0.626-2.01,0.769c-0.574-0.614-1.396-0.998-2.307-0.998c-1.745,0-3.16,1.415-3.16,3.161
	c0,0.248,0.028,0.487,0.081,0.72c-2.626-0.132-4.956-1.39-6.516-3.302c-0.271,0.466-0.427,1.009-0.427,1.589
	c0,1.097,0.558,2.064,1.406,2.631c-0.519-0.017-1.006-0.159-1.433-0.396c0,0.013,0,0.026,0,0.041c0,1.53,1.089,2.808,2.536,3.101
	c-0.267,0.07-0.545,0.107-0.834,0.107c-0.203,0-0.402-0.02-0.595-0.057c0.402,1.256,1.569,2.17,2.952,2.195
	c-1.081,0.848-2.444,1.354-3.925,1.354c-0.257,0-0.507-0.014-0.755-0.043c1.398,0.896,3.061,1.418,4.846,1.418
	c5.814,0,8.993-4.814,8.993-8.994c0-0.137-0.002-0.274-0.009-0.41C34.347,4.913,34.884,4.356,35.308,3.721z"/>
<path fill="#FFFFFF" d="M7.389,5.698H4.872V4.049c0-0.621,0.41-0.766,0.698-0.766c0.29,0,1.778,0,1.778,0V0.559L4.9,0.548
	c-2.715,0-3.332,2.032-3.332,3.333v1.816H0v2.809h1.568c0,3.604,0,7.946,0,7.946h3.304c0,0,0-4.388,0-7.946H7.1L7.389,5.698z"/>
<path fill="#FFFFFF" d="M44.022,8.974c1.87,0,3.629,0.73,4.949,2.06c1.324,1.33,2.053,3.1,2.053,4.983h2.883
	c0-5.473-4.436-9.926-9.885-9.926V8.974z M44.026,3.864c6.666,0,12.09,5.453,12.09,12.156H59c0-8.293-6.718-15.041-14.974-15.041
	V3.864L44.026,3.864z M48.013,14.007c0,1.104-0.895,1.996-1.996,1.996c-1.104,0-1.996-0.894-1.996-1.996
	c0-1.104,0.893-1.996,1.996-1.996C47.118,12.011,48.013,12.903,48.013,14.007z"/>
</svg>
