<svg id="WhatsApp_Logo" data-name="WhatsApp Logo" xmlns="http://www.w3.org/2000/svg" width="794" height="794" viewBox="0 0 794 794">
  <defs>
    <style>
      .cls-1 {
        fill: #25d366;
      }

      .cls-2 {
        fill: #fefefe;
        fill-rule: evenodd;
      }
    </style>
  </defs>
  <rect id="background" class="cls-1" x="-242" y="-136" width="1280" height="1067.031" rx="21.333" ry="21.333"/>
  <path id="WA_Logo" data-name="WA Logo" class="cls-2" d="M92.982,705.019l43.091-156.13a298.9,298.9,0,0,1-40.544-150.63C95.6,232.135,231.853,96.981,399.27,96.981c81.253,0.033,157.516,31.411,214.861,88.362s88.911,132.65,88.88,213.156c-0.068,166.127-136.338,301.295-303.737,301.295h-0.125A305.4,305.4,0,0,1,254,663.12Zm168.477-96.444L270.678,614A253.618,253.618,0,0,0,399.17,648.909h0.1c139.147,0,252.4-112.344,252.454-250.429a247.907,247.907,0,0,0-73.872-177.168,251.765,251.765,0,0,0-178.482-73.443c-139.254,0-252.506,112.334-252.561,250.409a248.345,248.345,0,0,0,38.6,133.273l6,9.476-25.5,92.411ZM552.295,470.146c-1.9-3.141-6.956-5.025-14.545-8.8s-44.9-21.978-51.859-24.493-12.017-3.766-17.076,3.768-19.6,24.5-24.032,29.52-8.853,5.653-16.442,1.884-32.043-11.717-61.032-37.367c-22.561-19.963-37.793-44.616-42.22-52.154s-0.472-11.609,3.327-15.363c3.415-3.374,7.59-8.8,11.385-13.19s5.059-7.538,7.589-12.559,1.265-9.421-.633-13.189-17.075-40.826-23.4-55.9c-6.161-14.678-12.418-12.69-17.076-12.923-4.422-.218-9.487-0.265-14.546-0.265a27.984,27.984,0,0,0-20.238,9.42c-6.956,7.538-26.562,25.752-26.562,62.806s27.194,72.854,30.989,77.879S329.441,490.29,405.574,522.9a438.147,438.147,0,0,0,43.265,15.859c18.181,5.731,34.726,4.922,47.8,2.983,14.582-2.16,44.9-18.211,51.227-35.8S554.192,473.284,552.295,470.146Z"/>
</svg>
